<svg xmlns="http://www.w3.org/2000/svg" xmlns:xlink="http://www.w3.org/1999/xlink" width="256.001" height="212" viewBox="0 0 256.001 212">
  <defs>
    <clipPath id="clip-path">
      <rect id="Rectangle_2931" data-name="Rectangle 2931" width="256" height="212" transform="translate(402.053 305.325)" fill="none"/>
    </clipPath>
    <clipPath id="clip-path-2">
      <rect id="Rectangle_2931-2" data-name="Rectangle 2931" width="256" height="212" transform="translate(1175.935 150.681)" fill="none"/>
    </clipPath>
  </defs>
  <g id="Group_9189" data-name="Group 9189" transform="translate(-831.998 -227)">
    <rect id="Rectangle_2931-3" data-name="Rectangle 2931" width="256" height="212" transform="translate(831.998 227)" fill="none"/>
    <g id="Group_7176" data-name="Group 7176" transform="translate(429.944 -78.325)">
      <g id="Group_7989" data-name="Group 7989" transform="translate(-773.88 154.644)">
        <path id="Path_12085" data-name="Path 12085" d="M1332.882,212.125a22.705,22.705,0,1,1,4.5,3.348l.023.017-6.809,3.792,2.261-7.174Z" fill="#fff" stroke="#c1e0f5" stroke-miterlimit="10" stroke-width="0.656"/>
        <line id="Line_1068" data-name="Line 1068" y2="7.99" transform="translate(1348.58 157.78)" fill="#fff" stroke="#c1e0f5" stroke-linecap="round" stroke-linejoin="round" stroke-width="0.656"/>
        <line id="Line_1069" data-name="Line 1069" x2="7.99" transform="translate(1311.919 195.462)" fill="#fff" stroke="#c1e0f5" stroke-linecap="round" stroke-linejoin="round" stroke-width="0.656"/>
        <line id="Line_1070" data-name="Line 1070" x2="7.99" transform="translate(1377.251 195.462)" fill="#fff" stroke="#c1e0f5" stroke-linecap="round" stroke-linejoin="round" stroke-width="0.656"/>
        <line id="Line_1071" data-name="Line 1071" x1="5.65" y1="5.65" transform="translate(1322.656 169.539)" fill="#fff" stroke="#c1e0f5" stroke-linecap="round" stroke-linejoin="round" stroke-width="0.656"/>
        <line id="Line_1072" data-name="Line 1072" y1="5.65" x2="5.65" transform="translate(1368.853 169.539)" fill="#fff" stroke="#c1e0f5" stroke-linecap="round" stroke-linejoin="round" stroke-width="0.656"/>
        <path id="Path_12086" data-name="Path 12086" d="M1402.512,273.181c0-2.857-5.434-1.84-8.227-1.79-1.08.02-2.391-.022-2.922-1.266-.516-1.208.086-2.716-.023-4.1-.219-2.774-3.01-3.677-5.077-3.125s-4.243,1.818-6.184.728c-2.6-1.46-2.479-4.161-4.347-6.96a6.323,6.323,0,0,0-7.932-2.307c-2.725,1.179-4.932,3.878-6.707,6.856-1.75,2.935-2.74,8.118-7.385,9.557-2.807.869-5.49-2.335-8.264-2.045-2.441.256-5.49,1.591-4.761,4.448Z" fill="#e3f0fa"/>
        <path id="Path_12087" data-name="Path 12087" d="M1274.625,210.913c2.075,0-1.748-3.636-5.021-2.769a8.017,8.017,0,0,1-3.686-.164c-2.047-.785-2.049-3.418-2.478-5.567s-.656-4.49-2.092-6.146a6.3,6.3,0,0,0-6.756-1.5c-2.319.82-4.082,2.684-5.955,4.28s-4.186,3.037-6.626,2.718c-1.8-.235-3.341-1.391-5.1-1.817-3.51-.85-7.024,1.325-9.693,3.758a21.284,21.284,0,0,1-8.6,4.809,23.091,23.091,0,0,1-11.006.456c-2.232-.481-3.563-1.83-5.905-1.83-3.406,0-5.433,2.018-7.187,3.771Z" fill="#e3f0fa"/>
        <g id="Group_7988" data-name="Group 7988">
          <g id="Group_7987" data-name="Group 7987" clip-path="url(#clip-path-2)">
            <g id="Group_7986" data-name="Group 7986">
              <line id="Line_1073" data-name="Line 1073" x2="135.181" transform="translate(1247.361 523.68)" fill="none" stroke="#c0af99" stroke-miterlimit="10" stroke-width="1.198"/>
              <g id="Group_7969" data-name="Group 7969">
                <path id="Path_12088" data-name="Path 12088" d="M1216.01,374.638c-1.578-3.258-9.81-17.517-18.489-22.228a9.386,9.386,0,0,0-3.516-1.271,3.775,3.775,0,0,0-3.369,1.28,4.24,4.24,0,0,0-.567,3.289c1.576,8.919,11.735,12.335,16.7,18.93" fill="#e6f3ed"/>
                <path id="Path_12089" data-name="Path 12089" d="M1216.01,374.585s-8.166-16.121-16.139-25.724c-3.775-4.546-6.368-12.967-2.4-15.49,5.743-3.65,11.386,4.481,13.971,8.519a84.7,84.7,0,0,1,9.005,19.747c.321,1,3.25,12.948,3.308,12.948h-7.746Z" fill="#c2e3d4"/>
                <path id="Path_12090" data-name="Path 12090" d="M1200.394,337.987c7.53,9.521,13.777,23.617,17.927,36.6" fill="none" stroke="#fff" stroke-miterlimit="10" stroke-width="0.518"/>
                <path id="Path_12091" data-name="Path 12091" d="M1233.135,374.585s.948-24.8,11.923-36.272c2.966-3.1,7.827-6.319,11.817-7.2,5.17-1.143,5.03,4.937,4.093,8.877-1.213,5.106-5.385,8.289-8.394,12.091-5.537,7-8.841,11.616-12.883,22.505" fill="#e6f3ed"/>
                <path id="Path_12092" data-name="Path 12092" d="M1229.836,374.585c-2.963-5.422-1.921-28.6-.435-35.863a37.033,37.033,0,0,1,6.049-14c2.626-3.651,10.474-11.7,15.093-8.429,2.671,1.892-1.375,8.705-2.442,10.752a116.378,116.378,0,0,0-8.35,21.021,127.8,127.8,0,0,0-5.029,26.182c-.008.113-.016.225-.023.338" fill="#c2e3d4"/>
                <path id="Path_12093" data-name="Path 12093" d="M1229.294,374.585c.976-12.98.351-32.9-5.5-44.151-6.635-12.76-15.284-18.651-16.54-13.678-3.641,14.423,10.971,53.213,15.085,57.829" fill="#9dd4ba"/>
                <path id="Path_12094" data-name="Path 12094" d="M1258.325,335.254c-11.81,8.233-19.961,23.826-21.479,39.331" fill="none" stroke="#fff" stroke-miterlimit="10" stroke-width="0.518"/>
                <path id="Path_12095" data-name="Path 12095" d="M1246.241,320.431c-5.8,5.182-8.754,13.287-10.537,21.136a176.6,176.6,0,0,0-4.026,33.018" fill="none" stroke="#fff" stroke-miterlimit="10" stroke-width="0.518"/>
                <path id="Path_12096" data-name="Path 12096" d="M1210.981,322.215c7.144,16.411,13.168,34.142,14.176,52.37" fill="none" stroke="#fff" stroke-miterlimit="10" stroke-width="0.518"/>
                <path id="Path_12097" data-name="Path 12097" d="M1194.128,354.252a61.561,61.561,0,0,1,17.725,20.333" fill="none" stroke="#fff" stroke-miterlimit="10" stroke-width="0.518"/>
              </g>
              <g id="Group_7970" data-name="Group 7970">
                <path id="Path_12098" data-name="Path 12098" d="M1383.584,374.284c1.55-20.5-.177-40.607,7.632-60.033,2.217-5.514,7.267-14.211,14.252-14.509,10.788-.459,4.183,21.216,2.228,29.326a120.713,120.713,0,0,1-5.077,15.392c-3.452,8.843-8.644,21.207-12.567,29.824" fill="#9dd4ba"/>
                <path id="Path_12099" data-name="Path 12099" d="M1377.983,374.284c-3.4-8.691-6.72-17.41-10.08-26.115-2.98-7.721-6.447-15.27-8.855-23.2-1.833-6.037-6.569-19.872.365-24.125,12.347-7.572,22.215,21.731,23.517,32.138,1.717,13.717,1.346,27.514,1.552,41.3" fill="#c2e3d4"/>
                <path id="Path_12100" data-name="Path 12100" d="M1368.171,374.284s-7.215-9.217-10.469-13.54c-7.27-9.655-16.233-20.143-14.9-31,.308-2.5,1.223-5.279,3.733-6.757a8.728,8.728,0,0,1,5.184-.988c5.907.563,11.2,9.142,13.857,13.539,5.2,8.613,13.263,38.742,13.263,38.742" fill="#e6f3ed"/>
                <path id="Path_12101" data-name="Path 12101" d="M1362.652,306.919c8.807,17.812,17.4,50.8,17.615,67.365" fill="none" stroke="#fff" stroke-miterlimit="10" stroke-width="0.518"/>
                <path id="Path_12102" data-name="Path 12102" d="M1348.96,327.375c7.75,14.887,23.51,46.909,23.51,46.909" fill="none" stroke="#fff" stroke-miterlimit="10" stroke-width="0.518"/>
                <path id="Path_12103" data-name="Path 12103" d="M1405.02,304.457c-6.324,14.1-14.991,44.67-18.481,69.868" fill="none" stroke="#fff" stroke-miterlimit="10" stroke-width="0.518"/>
                <path id="Path_12104" data-name="Path 12104" d="M1390.357,374.284s3.606-16.066,6.1-25.186c2.714-9.917,11.594-25.1,20.928-29.408,2.148-.993,4.738-1.675,6.816-.542a5.912,5.912,0,0,1,2.6,3.347c1.589,4.639-6.183,19.29-8.855,23.4-5.234,8.052-12.73,20.844-18.673,28.388" fill="#c2e3d4"/>
                <path id="Path_12105" data-name="Path 12105" d="M1422.471,322.919c-11.035,9.581-25.8,40.13-29.924,51.365" fill="none" stroke="#fff" stroke-miterlimit="10" stroke-width="0.518"/>
              </g>
              <g id="Group_7973" data-name="Group 7973">
                <path id="Path_12106" data-name="Path 12106" d="M1302.959,241.526c5.975,1.711,15.316-.168,20.548-3.522-2.485-3.336-3.423-6.4-4.638-9.795-1.727-4.828-2.842-11.222-5.92-15.323-3.155-4.2-7.78-5.253-13.117-5.436-6.193-.212-11.151,2.493-14.912,7.079-3.046,3.714-5.832,10.955-10.091,15.783,1.382,2.417,2.282,3.912,4.543,5.537,3.243,2.331,6.857,3.51,9.62,3.162" fill="#202237"/>
                <path id="Path_12107" data-name="Path 12107" d="M1294.407,238.222l-.655,12.244s1.264,6.379,8.305,4.817,7.9-4.468,7.9-4.468l-2.859-21.982" fill="#f7b6d1"/>
                <path id="Path_12108" data-name="Path 12108" d="M1289.72,215.287c-3.769,5.188-6.235,20.868.582,26.414s18.122-.932,19.69-12.426C1311.64,217.2,1299.629,201.649,1289.72,215.287Z" fill="#f7b6d1"/>
                <path id="Path_12109" data-name="Path 12109" d="M1308.588,232.867a19.412,19.412,0,0,1-3.14-10.067,5.528,5.528,0,0,1-4.208.186,2.777,2.777,0,0,1-1.539-3.546,4.958,4.958,0,0,1-4.567,1.208,3.25,3.25,0,0,1-2.26-3.819,9.364,9.364,0,0,1-5.546,3.772c-1.107-2.042-.482-4.306.447-6.436a11.828,11.828,0,0,1,4.559-4.995,12.17,12.17,0,0,1,5.045-1.565,12.737,12.737,0,0,1,13.144,6.837c4.45,9.795,1.95,13.875-.924,16.88" fill="#202237"/>
                <path id="Path_12110" data-name="Path 12110" d="M1306.448,229.513a2.44,2.44,0,0,1,1.991-1.507c2.154-.262,2.773,2.64,2.063,4.661a6.051,6.051,0,0,1-2.185,3c-1.417,1.071-2.941,1.027-3.358-.8" fill="#f7b6d1"/>
                <path id="Path_12111" data-name="Path 12111" d="M1308.966,228.1" fill="none" stroke="#f4835d" stroke-miterlimit="10" stroke-width="0.798"/>
                <path id="Path_12112" data-name="Path 12112" d="M1308.966,228.1l-.061.111" fill="none" stroke="#f4835d" stroke-miterlimit="10" stroke-width="0.798"/>
                <path id="Path_12113" data-name="Path 12113" d="M1294.126,244.163c7.958.034,10.54-5.146,10.54-5.146" fill="none" stroke="#f286b1" stroke-linejoin="round" stroke-width="0.798"/>
                <path id="Path_12114" data-name="Path 12114" d="M1292.529,238.331s3.887-4.125,6.5-1.512" fill="none" stroke="#f286b1" stroke-linejoin="round" stroke-width="0.802"/>
                <path id="Path_12115" data-name="Path 12115" d="M1293.246,227.675s-2.85,4.783-2.224,5.828,3.1.511,3.1.511" fill="none" stroke="#f286b1" stroke-linejoin="round" stroke-width="0.802"/>
                <g id="Group_7971" data-name="Group 7971">
                  <path id="Path_12116" data-name="Path 12116" d="M1299.729,227.7a2.138,2.138,0,0,1,.119.2,3.3,3.3,0,0,1,.219,1.542c.02.874-1.442.8-1.373-.1a5.415,5.415,0,0,1,.323-1.655C1299.228,227.191,1299.521,227.4,1299.729,227.7Z" fill="#081828"/>
                </g>
                <g id="Group_7972" data-name="Group 7972">
                  <path id="Path_12117" data-name="Path 12117" d="M1289.717,226.541a1.918,1.918,0,0,1,.078.224,3.307,3.307,0,0,1-.083,1.555c-.149.861-1.57.507-1.329-.36a5.425,5.425,0,0,1,.637-1.562C1289.325,225.941,1289.572,226.2,1289.717,226.541Z" fill="#081828"/>
                </g>
                <path id="Path_12118" data-name="Path 12118" d="M1304.189,227.063a2.682,2.682,0,0,0-.2-1.033,3.843,3.843,0,0,0-1.5-1.762,3.326,3.326,0,0,0-2.307-.483,2.038,2.038,0,0,0-.732.311,1.688,1.688,0,0,0-.219.2s.116.014.283.021a3.212,3.212,0,0,1,.654.148,7.735,7.735,0,0,1,1.7.812,14.189,14.189,0,0,1,1.571,1.141c.2.18.417.321.535.458A2.364,2.364,0,0,0,1304.189,227.063Z" fill="#081828"/>
                <path id="Path_12119" data-name="Path 12119" d="M1291.831,224.084a1.449,1.449,0,0,0-.091-.2,1.4,1.4,0,0,0-.413-.445,2.177,2.177,0,0,0-1.77-.266,2.394,2.394,0,0,0-1.417,1.027,1.636,1.636,0,0,0-.245.77,2.127,2.127,0,0,0,.208-.078c.111-.061.3-.108.485-.178.378-.134.828-.281,1.272-.392a6.617,6.617,0,0,1,1.253-.238A3.676,3.676,0,0,1,1291.831,224.084Z" fill="#081828"/>
              </g>
              <g id="Group_7981" data-name="Group 7981">
                <g id="Group_7976" data-name="Group 7976">
                  <path id="Path_12120" data-name="Path 12120" d="M1342.251,394.333c5.929,38.339,13.044,71.541,13.044,71.541l-25.824,2.108s-13.914-39.372-20.817-77.207" fill="#f7b6d1"/>
                  <g id="Group_7975" data-name="Group 7975">
                    <g id="Group_7974" data-name="Group 7974">
                      <path id="Path_12121" data-name="Path 12121" d="M1365.3,522.751l-.042-1.987-36.388.184a3.571,3.571,0,0,1-3.1-1.673l-.222-.035.106,3.145a.47.47,0,0,0,.133.317l.078.08a2.746,2.746,0,0,0,2.022.825l35.17-.191C1363.446,523.408,1365.311,523.137,1365.3,522.751Z" fill="#f1633b"/>
                      <path id="Path_12122" data-name="Path 12122" d="M1355.145,464.686l-26.362,1.306,13.894,42.117-15.575,9.328a1.5,1.5,0,0,0,.6,2.885l35.4-.162.626-10.367Z" fill="#fbd3c7"/>
                      <path id="Path_12123" data-name="Path 12123" d="M1342.316,507.024l-15.743,10.337a1.888,1.888,0,0,0-1.024,1.776h0a2.06,2.06,0,0,0,2.023,1.838l37.689-.211-1.532-11.327S1349.376,510.8,1342.316,507.024Z" fill="#202237"/>
                      <path id="Path_12124" data-name="Path 12124" d="M1338.576,509.334a18.262,18.262,0,0,1,2.282,3.611" fill="none" stroke="#f1633b" stroke-linecap="round" stroke-linejoin="round" stroke-width="0.798"/>
                      <path id="Path_12125" data-name="Path 12125" d="M1336.656,510.551a16.014,16.014,0,0,1,1.878,3.073" fill="none" stroke="#f1633b" stroke-linecap="round" stroke-linejoin="round" stroke-width="0.798"/>
                      <path id="Path_12126" data-name="Path 12126" d="M1335.029,511.447a22.364,22.364,0,0,1,1.7,2.819" fill="none" stroke="#f1633b" stroke-linecap="round" stroke-linejoin="round" stroke-width="0.798"/>
                      <path id="Path_12127" data-name="Path 12127" d="M1332.267,513.7a16.455,16.455,0,0,1,2.881,8.3" fill="none" stroke="#f1633b" stroke-miterlimit="10" stroke-width="0.798"/>
                      <path id="Path_12128" data-name="Path 12128" d="M1364.181,513.542s-6.124.424-7.527,8.33" fill="none" stroke="#f1633b" stroke-miterlimit="10" stroke-width="0.798"/>
                    </g>
                    <line id="Line_1074" data-name="Line 1074" y1="0.985" x2="25.449" transform="translate(1330.396 469.897)" fill="none" stroke="#3c3342" stroke-miterlimit="10" stroke-width="0.798"/>
                  </g>
                </g>
                <g id="Group_7979" data-name="Group 7979">
                  <path id="Path_12129" data-name="Path 12129" d="M1298.765,386.7c-.375,46.038,2.869,82.859,2.869,82.859h-24.769a420.171,420.171,0,0,1-9.621-92.919" fill="#f7b6d1"/>
                  <g id="Group_7978" data-name="Group 7978">
                    <g id="Group_7977" data-name="Group 7977">
                      <path id="Path_12130" data-name="Path 12130" d="M1307.39,522.751l-.042-1.987-35.913.184a3.571,3.571,0,0,1-3.1-1.673l-.222-.035.106,3.145a.465.465,0,0,0,.133.317l.078.08a2.746,2.746,0,0,0,2.022.825l36.292-.191A.627.627,0,0,0,1307.39,522.751Z" fill="#f1633b"/>
                      <path id="Path_12131" data-name="Path 12131" d="M1301.489,467.2l-25.176-.085c2.392,12.544,9.078,41.012,9.078,41.012l-15.477,9.49a1.5,1.5,0,0,0,.629,2.879l34.923-.525.988-10.766Z" fill="#fbd3c7"/>
                      <path id="Path_12132" data-name="Path 12132" d="M1285.07,507.024l-15.935,10.337a1.888,1.888,0,0,0-1.024,1.776h0a2.059,2.059,0,0,0,2.023,1.838l37.214-.211-.894-11.555S1292.13,510.8,1285.07,507.024Z" fill="#202237"/>
                      <path id="Path_12133" data-name="Path 12133" d="M1281.138,509.334a18.3,18.3,0,0,1,2.282,3.611" fill="none" stroke="#f1633b" stroke-linecap="round" stroke-linejoin="round" stroke-width="0.798"/>
                      <path id="Path_12134" data-name="Path 12134" d="M1279.218,510.551a16.007,16.007,0,0,1,1.878,3.073" fill="none" stroke="#f1633b" stroke-linecap="round" stroke-linejoin="round" stroke-width="0.798"/>
                      <path id="Path_12135" data-name="Path 12135" d="M1277.591,511.447a22.35,22.35,0,0,1,1.705,2.819" fill="none" stroke="#f1633b" stroke-linecap="round" stroke-linejoin="round" stroke-width="0.798"/>
                      <path id="Path_12136" data-name="Path 12136" d="M1274.829,513.7s4.171,3.353,4.477,8.3" fill="none" stroke="#f1633b" stroke-miterlimit="10" stroke-width="0.798"/>
                      <path id="Path_12137" data-name="Path 12137" d="M1306.8,513.624s-4.58.342-5.983,8.248" fill="none" stroke="#f1633b" stroke-miterlimit="10" stroke-width="0.798"/>
                    </g>
                  </g>
                  <line id="Line_1075" data-name="Line 1075" x2="24.422" transform="translate(1277.591 471.866)" fill="none" stroke="#3c3342" stroke-miterlimit="10" stroke-width="0.798"/>
                </g>
                <g id="Group_7980" data-name="Group 7980">
                  <path id="Path_12138" data-name="Path 12138" d="M1314.144,308.43c28.288,24.452,29.333,67.715,30.522,89.4,0,0-8.763,3.008-39.856,3.535s-39.475-1.758-39.475-1.758-2.786-65.159,12.972-86.431" fill="#c2e3d4"/>
                  <path id="Path_12139" data-name="Path 12139" d="M1319.861,322.7c18.294,17.112,20.14,75.679,20.14,75.679" fill="none" stroke="#9dd4bb" stroke-miterlimit="10" stroke-width="0.798"/>
                  <path id="Path_12140" data-name="Path 12140" d="M1274.013,320.311s30.168,1.2,40.939.562" fill="none" stroke="#9dd4bb" stroke-miterlimit="10" stroke-width="0.798"/>
                  <path id="Path_12141" data-name="Path 12141" d="M1272.509,324.611s30.167,1.2,40.938.562" fill="none" stroke="#9dd4bb" stroke-miterlimit="10" stroke-width="0.798"/>
                  <line id="Line_1076" data-name="Line 1076" y2="4.149" transform="translate(1292.294 321.06)" fill="none" stroke="#9dd4bb" stroke-miterlimit="10" stroke-width="0.798"/>
                  <path id="Path_12142" data-name="Path 12142" d="M1290.495,323.116a1.074,1.074,0,1,1-1.074-1.074A1.074,1.074,0,0,1,1290.495,323.116Z" fill="#9dd4bb"/>
                  <path id="Path_12143" data-name="Path 12143" d="M1265.145,395.144s50.5,4.461,79.257-2.312" fill="none" stroke="#3c3342" stroke-miterlimit="10" stroke-width="0.798"/>
                  <path id="Path_12144" data-name="Path 12144" d="M1299.044,366.861l7.647,21.415" fill="none" stroke="#3c3342" stroke-miterlimit="10" stroke-width="1.597"/>
                  <path id="Path_12145" data-name="Path 12145" d="M1294.039,366.886q3.365,7.059,7.3,13.83" fill="none" stroke="#3c3342" stroke-miterlimit="10" stroke-width="1.597"/>
                </g>
              </g>
              <g id="Group_7985" data-name="Group 7985">
                <path id="Path_12146" data-name="Path 12146" d="M1321.477,255.529c14.468,14.469,19.46,57.679,19.46,57.679l1.536,7.167h4.47l-1.536-7.167s-4.991-43.21-19.46-57.679" fill="#202237"/>
                <path id="Path_12147" data-name="Path 12147" d="M1291.474,262.909l3.008,2.512" fill="none" stroke="#f28b8a" stroke-linejoin="round" stroke-width="0.798"/>
                <path id="Path_12148" data-name="Path 12148" d="M1319.371,273.307c0,2.788-3.814,18.4-3.814,18.4l21.147,8.565s9.292-23.093-3.06-39.278C1326,250.986,1311.537,251,1311.537,251l-1.938-5.783a24.63,24.63,0,0,1-9.2,1.849c-5.579.119-6.806-1.206-6.806-1.206l-.791,5.286s-17.269,1.35-23.5,25.736-1.243,42.652-1.243,42.652,7.7.5,23.414.767,29.311-.336,29.311-.336,16.8-45.792,6.774-56.089-13.277-9.754-13.277-9.754" fill="#3371b7"/>
                <path id="Path_12149" data-name="Path 12149" d="M1308.413,316.765l.993,8.181c.6,4.94,1.212,9.935,2.981,14.586s4.839,8.993,9.254,11.288c6.285,3.266,14.375,1.687,19.893-2.755a16.446,16.446,0,0,0,4.674-5.692,21.76,21.76,0,0,0,1.631-8.735,71.6,71.6,0,0,0-2.432-20.43l-36.3.762" fill="#202237"/>
                <path id="Path_12150" data-name="Path 12150" d="M1312.43,317.372s8.231,17.093,21.78,13.879c12.23-2.9,11.209-15.22,11.209-15.22" fill="none" stroke="#2253a1" stroke-linejoin="round" stroke-width="0.798"/>
                <path id="Path_12151" data-name="Path 12151" d="M1308.782,320.13c-3.823-61.865,10.2-68.247,10.2-68.247l3.623,1.04s-12.644,1.35-10.2,68.246" fill="#202237"/>
                <path id="Path_12152" data-name="Path 12152" d="M1275.7,317.372l3.638-27.569s-8.269-9.543,3.337-21.15" fill="none" stroke="#2253a1" stroke-linejoin="round" stroke-width="0.798"/>
                <line id="Line_1077" data-name="Line 1077" y1="15.361" x2="4.806" transform="translate(1315.557 276.352)" fill="none" stroke="#2253a1" stroke-linejoin="round" stroke-width="0.798"/>
                <g id="Group_7982" data-name="Group 7982">
                  <path id="Path_12153" data-name="Path 12153" d="M1280.424,269.838l7.123-.328s.442-1.02.592-1.251a1.435,1.435,0,0,0,.033-1.432l-7.934-15.365a2.481,2.481,0,0,0-2.635-1.421l-7.053,1.118a1.092,1.092,0,0,0-.814.794c-.1.336-.5,1.228-.5,1.228l8.55,15.237A2.48,2.48,0,0,0,1280.424,269.838Z" fill="#252b35"/>
                  <path id="Path_12154" data-name="Path 12154" d="M1279.952,270.939l7.053-1.118a1.273,1.273,0,0,0,.695-1.893l-7.934-15.366a2.48,2.48,0,0,0-2.635-1.42l-7.053,1.118a1.273,1.273,0,0,0-.695,1.893l7.934,15.365A2.481,2.481,0,0,0,1279.952,270.939Z" fill="#0d0f12"/>
                  <path id="Path_12155" data-name="Path 12155" d="M1279.144,256.471l1.16-.111c.273-.026.383-.259.245-.52l-1.686-3.207a.831.831,0,0,0-.743-.426l-1.16.111c-.273.026-.383.259-.246.52l1.687,3.207A.831.831,0,0,0,1279.144,256.471Z" fill="#252b35"/>
                </g>
                <g id="Group_7983" data-name="Group 7983">
                  <path id="Path_12156" data-name="Path 12156" d="M1301.748,273.958c-1.866-4.025-8.663-13.827-10.773-15.107-1.262-.765,1.443,4.722,1.443,4.722s-2.654-2.364-5.022-4.287c-1.861-1.51-4.457-3.1-5.042-2.579-.444.392,1.929,1.987,3.518,3.768a46.916,46.916,0,0,1,3.405,4.463s-2.132-2.233-4.438-4.213c-1.969-1.69-4.978-3.23-5.741-2.918-.816.334,2.208,2.215,4.116,4.354,1.617,1.812,3.826,4.419,3.746,4.674,0,0-2.132-2.434-4.18-4.421-1.514-1.471-4.821-2.3-5.315-1.862-.513.454,2.219,1.7,4.133,3.486a27.062,27.062,0,0,1,3.866,4.964c-.794-.8-2.593-2.367-4.167-3.9-1.254-1.219-3.937-2.322-4.252-2.043-.848.751,1.593,1.425,2.968,2.966.7.781,3.049,3.625,3.378,4.1.369.538,2.623,4.172,5.856,9.443Z" fill="#f7b6d1"/>
                  <path id="Path_12157" data-name="Path 12157" d="M1335.613,299.81s-7.624,27.649-20.556,31.184c-16.445,4.494-25.81-51.419-25.81-51.419l12.5-5.617,12.665,27.711,3.006-9.246Z" fill="#f7b6d1"/>
                </g>
                <g id="Group_7984" data-name="Group 7984">
                  <path id="Path_12158" data-name="Path 12158" d="M1274.991,279.575c-.031-2.375,1.971-4.711,2.224-5.894.327-1.531.565-4.065,2.014-4.729.869-.4,2.735.448,3.443-.3s-1.949-1.956-3.263-1.928a6.741,6.741,0,0,0-4.661,2.46,7.5,7.5,0,0,1,4.131-3.042c1.168-.248,3.48-.291,3.463-1.013s-2.937-1.544-4.988-1.067a15.264,15.264,0,0,0-4.838,2.664,9.662,9.662,0,0,1,4.314-3.445c1.126-.4,4.03-.373,4.018-.89-.028-1.212-2.962-1.785-5.916-.871a9.44,9.44,0,0,0-4.447,3.317,6.114,6.114,0,0,1,3.232-3.61c1.06-.552,4.152-1.228,3.793-2.055-.508-1.168-3.617-.4-6.17.643-2.633,1.081-4.948,6.437-6.319,9.575-.229.522-.838,2.262-1.692,4.8Z" fill="#f7b6d1"/>
                  <path id="Path_12159" data-name="Path 12159" d="M1263.329,274.186s-12.374,50,5.838,52.053c15.862,1.784,3.667-42.621,6.132-52.281" fill="#f7b6d1"/>
                </g>
                <line id="Line_1078" data-name="Line 1078" x2="21.203" y2="8.453" transform="translate(1316.953 287.253)" fill="none" stroke="#2253a1" stroke-linejoin="round" stroke-width="0.798"/>
                <path id="Path_12160" data-name="Path 12160" d="M1293.591,245.864c1.3.148,6.656,2.387,16.008-.643" fill="none" stroke="#2253a1" stroke-linejoin="round" stroke-width="0.798"/>
                <path id="Path_12161" data-name="Path 12161" d="M1293.142,248.867s9.324,3.466,17.6-.222" fill="none" stroke="#2253a1" stroke-linejoin="round" stroke-width="0.798"/>
                <path id="Path_12162" data-name="Path 12162" d="M1314.413,301.669s5.951,6.768,5.951,10.76" fill="none" stroke="#f286b1" stroke-linejoin="round" stroke-width="0.798"/>
                <path id="Path_12163" data-name="Path 12163" d="M1264.44,243.462a12.269,12.269,0,0,0-6.714,13.421" fill="#fff" stroke="#c1e0f5" stroke-linecap="round" stroke-linejoin="round" stroke-width="0.656"/>
                <path id="Path_12164" data-name="Path 12164" d="M1255.8,236.331c-8.926,3.831-13.961,14.951-10.951,24.185" fill="#fff" stroke="#c1e0f5" stroke-linecap="round" stroke-linejoin="round" stroke-width="0.656"/>
                <path id="Path_12165" data-name="Path 12165" d="M1246.243,226.866c-15.759,4.6-17.993,21.687-17.767,31.49" fill="#fff" stroke="#c1e0f5" stroke-linecap="round" stroke-linejoin="round" stroke-width="0.656"/>
              </g>
            </g>
          </g>
        </g>
        <g id="Group_4998" data-name="Group 4998" transform="translate(1327.83 180.378)">
          <path id="Path_14018" data-name="Path 14018" d="M878.36,84.773a12,12,0,0,0-11.992,11.864h-.006v.1l0,.034a12.037,12.037,0,0,0,12,12,11.227,11.227,0,0,0,1.172-.064,12,12,0,0,0-1.174-23.94M883.9,100.9l-1.414,1.414-4.126-4.126-4.124,4.126-1.414-1.414,4.124-4.126-4.124-4.126,1.414-1.414,4.124,4.126,4.126-4.126,1.414,1.414-4.126,4.126Z" transform="translate(-857.256 -81.471)" fill="#de5c6e" stroke="rgba(0,0,0,0)" stroke-miterlimit="10" stroke-width="1"/>
        </g>
      </g>
    </g>
  </g>
</svg>
